<?xml version="1.0" encoding="utf-8"?>
<!-- Generator: Adobe Illustrator 17.1.0, SVG Export Plug-In . SVG Version: 6.00 Build 0)  -->
<!DOCTYPE svg PUBLIC "-//W3C//DTD SVG 1.1//EN" "http://www.w3.org/Graphics/SVG/1.1/DTD/svg11.dtd">
<svg version="1.1" id="Layer_1" xmlns="http://www.w3.org/2000/svg" xmlns:xlink="http://www.w3.org/1999/xlink" x="0px" y="0px"
	 viewBox="0 0 149 132" enable-background="new 0 0 149 132" xml:space="preserve">
<g>
	<path fill-rule="evenodd" clip-rule="evenodd" fill="#ED1C24" d="M75,34c0.1,0.1,21.8,49.5,21.7,49.5c-4.7,0-9.5,0-14.2,0
		c0-0.2-6.7-16.1-6.7-16.2c-5.1,0-10.2,0-15.3,0C60.7,67.3,75.2,33.8,75,34L75,34z"/>
	<path fill-rule="evenodd" clip-rule="evenodd" fill="#ED1C24" d="M28.9,3.6c0.1,0,33.3,0,33.3,0c0.1,0-33,79.8-33.2,79.7
		C29,83.2,28.9,3.6,28.9,3.6L28.9,3.6z"/>
	<path fill-rule="evenodd" clip-rule="evenodd" fill="#ED1C24" d="M87.5,3.6h34.4c0,0.2,0,79.8,0,79.7C121.9,83.6,87.5,3.6,87.5,3.6
		L87.5,3.6z"/>
	<path fill-rule="evenodd" clip-rule="evenodd" fill="#201600" d="M42.4,95.9l7.4,31.6h-5.4l-1.3-5.9h-6.7l-1.2,5.9h-5.4l7.4-31.6
		H42.4L42.4,95.9L42.4,95.9z M42.1,116.2l-2.3-11.8l-2.3,11.8H42.1L42.1,116.2z"/>
	<path fill-rule="evenodd" clip-rule="evenodd" fill="#201600" d="M61.9,127.5l-0.1-2.8h-0.2c-0.7,2.2-2.3,3.6-4.3,3.6
		c-4.8,0-6.8-5.6-6.8-12.4c0-5.9,1.5-12.2,6.8-12.2c1.9,0,2.7,0.7,4.1,2.4V95.9h4.8v31.6H61.9L61.9,127.5L61.9,127.5z M58.5,108.4
		c-1.3,0-3.1,1.3-3.1,7.7c0,3,0.4,7.8,3.1,7.8c2.6,0,3.1-4.3,3.1-7.8C61.6,109.6,59.8,108.4,58.5,108.4L58.5,108.4z"/>
	<path fill-rule="evenodd" clip-rule="evenodd" fill="#201600" d="M69.5,116c0-7.1,2.5-12.3,8.1-12.3c5.6,0,8.1,5.2,8.1,12.3
		c0,7.2-2.5,12.4-8.1,12.4C72,128.4,69.5,123.2,69.5,116L69.5,116L69.5,116z M80.7,116c0-6.2-1.3-7.7-3.1-7.7
		c-1.4,0-3.1,1.1-3.1,7.7c0,6.7,1.7,7.8,3.1,7.8C79.6,123.8,80.7,121.9,80.7,116L80.7,116z"/>
	<path fill-rule="evenodd" clip-rule="evenodd" fill="#201600" d="M93.1,127.5h-4.3V95.9h4.8v10.5c1-2.3,2.9-2.7,4-2.7
		c5,0,6.9,5.3,6.9,12.2c0,6.9-1.8,12.4-6.8,12.4c-2.1,0-3.3-1-4.3-3.6h-0.1L93.1,127.5L93.1,127.5L93.1,127.5z M96.6,123.8
		c2.6,0,3.1-4.3,3.1-7.8c0-6.4-1.8-7.7-3.1-7.7c-1.3,0-3.1,1.3-3.1,7.7C93.5,119,93.9,123.8,96.6,123.8L96.6,123.8z"/>
	<path fill-rule="evenodd" clip-rule="evenodd" fill="#201600" d="M122.6,120.9c-1.2,7-5.1,7.5-7.7,7.5c-2.9,0-7.9-1.1-7.9-12.4
		c0-7.9,3.2-12.3,8.3-12.3c3.2,0,7.6,1.8,7.6,12.7v1.3h-11c0,5.4,1.9,6.1,3.2,6.1c1.1,0,2.2-0.3,2.7-2.9H122.6L122.6,120.9
		L122.6,120.9z M118,113.9c-0.1-4.7-1.3-5.6-2.9-5.6c-2.7,0-3.2,3.8-3.2,5.6H118L118,113.9z"/>
	<path fill-rule="evenodd" clip-rule="evenodd" fill="#201600" d="M124.3,5.5V3.6h8.1v1.9h-3v7.9h-2.1V5.5H124.3L124.3,5.5
		L124.3,5.5z M135,5.8v7.5h-2.1V3.6h2.8l2.8,7.7l2.7-7.7h2.8v9.7h-2.1V5.8l-2.7,7.5h-1.5L135,5.8L135,5.8z"/>
</g>
</svg>
