<?xml version="1.0" encoding="utf-8"?>
<!-- Generator: Adobe Illustrator 17.1.0, SVG Export Plug-In . SVG Version: 6.00 Build 0)  -->
<!DOCTYPE svg PUBLIC "-//W3C//DTD SVG 1.1//EN" "http://www.w3.org/Graphics/SVG/1.1/DTD/svg11.dtd">
<svg version="1.1" id="Layer_1" xmlns="http://www.w3.org/2000/svg" xmlns:xlink="http://www.w3.org/1999/xlink" x="0px" y="0px"
	 viewBox="0 0 149 132" enable-background="new 0 0 149 132" xml:space="preserve">
<g>
	<g>
		<polygon fill="#3366CC" points="110.7,118.6 74.5,128.4 38.3,118.6 30,28.2 119,28.2 		"/>
		<polygon fill="#6699FF" points="74.5,35.5 74.5,120.6 74.6,120.6 103.9,112.7 110.6,35.5 		"/>
		<g>
			<polygon points="54,14.9 54,9.5 61.8,9.5 61.8,3.6 48.1,3.6 48.1,20.3 61.8,20.3 61.8,14.9 			"/>
			<path d="M76,9.5h5.5V3.6H67.7c0,0,0,3,0,5.9c1.8,1.8,2.8,2.7,5.5,5.4c-1.6,0-5.5,0-5.5,0v5.4h13.7v-5.4L76,9.5z"/>
			<path d="M95.4,9.5h5.5V3.6H87.2c0,0,0,3,0,5.9c1.8,1.8,2.8,2.7,5.5,5.4c-1.6,0-5.5,0-5.5,0v5.4h13.7v-5.4L95.4,9.5z"/>
		</g>
		<g>
			<polygon fill="#FFFFFF" points="74.5,58.1 48.6,68.9 49.4,79.6 74.5,68.9 101.1,57.5 102.2,46.6 			"/>
			<linearGradient id="SVGID_1_" gradientUnits="userSpaceOnUse" x1="61.5195" y1="79.5906" x2="61.5195" y2="58.1281">
				<stop  offset="0.3865" style="stop-color:#C8C7C7;stop-opacity:0"/>
				<stop  offset="1" style="stop-color:#C8C7C7"/>
			</linearGradient>
			<polygon fill="url(#SVGID_1_)" points="48.6,68.9 49.4,79.6 74.5,68.9 74.5,58.1 			"/>
			<linearGradient id="SVGID_2_" gradientUnits="userSpaceOnUse" x1="88.3357" y1="68.8859" x2="88.3357" y2="46.5767">
				<stop  offset="0.3865" style="stop-color:#C8C7C7;stop-opacity:0"/>
				<stop  offset="1" style="stop-color:#C8C7C7"/>
			</linearGradient>
			<polygon fill="url(#SVGID_2_)" points="102.2,46.6 74.5,58.1 74.5,68.9 101.1,57.5 			"/>
			<linearGradient id="SVGID_3_" gradientUnits="userSpaceOnUse" x1="48.6115" y1="89.1634" x2="100.1589" y2="89.1634">
				<stop  offset="0" style="stop-color:#E5E5E5"/>
				<stop  offset="1" style="stop-color:#FFFFFF"/>
			</linearGradient>
			<polygon fill="url(#SVGID_3_)" points="48.6,68.9 49.5,79.6 87.9,79.7 87,93.9 74.4,97.5 62.2,94.4 61.5,85.6 50.2,85.6 
				51.7,102.7 74.5,109.4 97.2,102.8 100.2,68.9 			"/>
			<g opacity="5.000000e-002">
				<polygon fill="#201600" points="74.5,68.9 48.6,68.9 49.4,79.6 74.5,79.7 				"/>
				<polygon fill="#201600" points="74.5,97.5 74.3,97.5 62.2,94.4 61.5,85.6 50.2,85.6 51.6,102.7 74.5,109.4 				"/>
			</g>
			<linearGradient id="SVGID_4_" gradientUnits="userSpaceOnUse" x1="46.2398" y1="52.0381" x2="102.204" y2="52.0381">
				<stop  offset="0" style="stop-color:#E5E5E5"/>
				<stop  offset="1" style="stop-color:#FFFFFF"/>
			</linearGradient>
			<polygon fill="url(#SVGID_4_)" points="46.2,46.6 102.2,46.6 101.1,57.5 47.6,57.5 			"/>
			<polygon opacity="5.000000e-002" fill="#201600" points="74.5,46.6 46.2,46.6 47.6,57.5 74.5,57.5 			"/>
		</g>
	</g>
</g>
</svg>
