<?xml version="1.0" encoding="utf-8"?>
<!-- Generator: Adobe Illustrator 17.1.0, SVG Export Plug-In . SVG Version: 6.00 Build 0)  -->
<!DOCTYPE svg PUBLIC "-//W3C//DTD SVG 1.1//EN" "http://www.w3.org/Graphics/SVG/1.1/DTD/svg11.dtd">
<svg version="1.1" id="Layer_1" xmlns="http://www.w3.org/2000/svg" xmlns:xlink="http://www.w3.org/1999/xlink" x="0px" y="0px"
	 viewBox="0 0 149 132" enable-background="new 0 0 149 132" xml:space="preserve">
<g>
	<path fill="#DE4C36" d="M134.5,60.4L80.1,6c-3.1-3.1-8.2-3.1-11.4,0L57.4,17.3l14.3,14.3c3.3-1.1,7.2-0.4,9.8,2.3
		c2.7,2.7,3.4,6.5,2.3,9.9l13.8,13.8c3.3-1.2,7.2-0.4,9.9,2.3c3.7,3.7,3.7,9.8,0,13.5c-3.7,3.7-9.8,3.7-13.5,0
		c-2.8-2.8-3.5-6.9-2.1-10.4L79,50.1l0,33.9c0.9,0.5,1.8,1.1,2.5,1.8c3.7,3.7,3.7,9.8,0,13.5c-3.7,3.7-9.8,3.7-13.5,0
		c-3.7-3.7-3.7-9.8,0-13.5c0.9-0.9,2-1.6,3.1-2.1V49.5C70,49.1,69,48.4,68,47.4c-2.8-2.8-3.5-7-2.1-10.5L51.8,22.8L14.5,60.2
		c-3.1,3.1-3.1,8.2,0,11.4L68.9,126c3.1,3.1,8.2,3.1,11.4,0l54.2-54.2C137.7,68.7,137.7,63.6,134.5,60.4"/>
</g>
</svg>
