<?xml version="1.0" encoding="utf-8"?>
<!-- Generator: Adobe Illustrator 17.1.0, SVG Export Plug-In . SVG Version: 6.00 Build 0)  -->
<!DOCTYPE svg PUBLIC "-//W3C//DTD SVG 1.1//EN" "http://www.w3.org/Graphics/SVG/1.1/DTD/svg11.dtd">
<svg version="1.1" id="Layer_1" xmlns="http://www.w3.org/2000/svg" xmlns:xlink="http://www.w3.org/1999/xlink" x="0px" y="0px"
	 viewBox="0 0 149 132" enable-background="new 0 0 149 132" xml:space="preserve">
<g>
	<path fill="#D34A47" d="M89.8,124.6l1.2-19.9l3.3-5.6c0,0-7.5,3.1-20.1,3.1c-12.6,0-20-3-20-3l3.7,6.2l1.3,19.4
		c0,2.1,6.9,3.8,15.3,3.8C82.9,128.4,89.8,126.7,89.8,124.6"/>
	<path fill="#D34A47" d="M86,31.5l2.5-9.9l13.9-14.6l-3.7-3.1L84,19.4l-2.9,11.9c-2.1-0.1-4.3-0.1-6.6-0.1
		c-15.5,0-28.1,1.8-28.1,3.9c0,2.2,12.6,3.9,28.1,3.9c15.5,0,28.1-1.8,28.1-3.9C102.6,33.5,95.8,32.1,86,31.5"/>
	<path fill="#FFFFFF" d="M84.5,37c0,0-0.5,0.1-2.1,0.1c-1.6,0-2.7,0-3.2-0.4c-0.1-0.1-0.2-0.3-0.2-0.5c0-0.3,0.2-0.5,0.5-0.6
		l0.2,0.4c-0.1,0-0.2,0.1-0.2,0.1c0,0.2,1.6,0.4,2.9,0.3c1.3,0,2.8-0.1,2.8-0.3c0-0.1-0.1-0.1-0.3-0.2l0.2-0.4
		c0.3,0.1,0.6,0.3,0.6,0.6C85.7,36.9,85,37,84.5,37"/>
	<path fill="#D34A47" d="M102.4,6.9c0.3-0.4-0.2-1.4-1.2-2.3c-1-0.9-2.1-1.2-2.5-0.8c-0.4,0.4,0.2,1.4,1.2,2.3
		C100.9,7,102,7.3,102.4,6.9"/>
	<path fill="#D34A47" d="M89.1,75.9c-0.3-3.2,6.9-7.8,5.1-7.9c-4,0.2-6,4.7-8,9.4c-0.7,1.7-3.3,9-4.9,8.1c-1.7-0.9,2.2-6.9,3.2-10.5
		c-1.2,0.9-5.8,4.4-6.9,1.1c-1.9,1.6-5.9,2.5-5.4-1.7c-1,1.8-3.2,4.2-5.9,3.2c-3.5-1.3,2-12.6,3.4-12c1.4,0.6-0.3,3.1-0.7,4.1
		c-1,2.2-2.1,4.9-1.3,5.5c1.3,1,4.7-3.6,4.8-3.8c0.6-0.9,2.5-6.4,4-5.8c1.5,0.6-3.7,8-1.8,9.5c0.4,0.3,2-0.2,3-1.2
		c0.6-0.7,0.4-2.2,2.5-7.2c2.1-5,4-11.2,5.4-10.8c1.4,0.5,0.3,3.7-0.3,4.9c-2.4,5.6-6.6,14.8-4.6,14.1c2-0.7,3-0.7,4.9-3
		c1.9-2.3,1.8-6,3.1-5.9c1.3,0.1,1.1,1.3,0.8,2.2c1.3-1.5,6-4.5,7.2-1.5c1.4,3.6-6.8,8.8-4.8,8.5c2-0.3,5.2-2.3,6.6-4.1l3.8-33.9
		c0,0-3.8,3.1-27.9,3.1c-24.1,0-27.5-3.1-27.5-3.1l3.2,30.9c1.7-4.8,5.7-14.6,12.1-14.3c2.9,0.1,6.8,5.7,3.5,5.9
		c-1.4,0.1-1.5-2.8-3.2-3.2c-1.2-0.3-2.9,0.7-3.9,1.7c-2.2,2.1-6.8,10.4-6.2,14.6c0.8,5.3,7.3-1.8,8.4-3.9c0.8-1.5,1.3-5.9,3-5.4
		c1.7,0.5-0.1,5-1.4,9c-1.4,4.5-2.1,9.3-3.8,8.7c-1.7-0.5,1.1-6.4,1-7.4c-1.6,1.5-4.6,5.3-8.5,3.4l2,19.2c0,0,5.3,4.2,21.3,4.2
		s21.4-4.1,21.4-4.1l2.5-22.2C95.9,76.3,89.5,79.8,89.1,75.9"/>
</g>
</svg>
