<?xml version="1.0" encoding="utf-8"?>
<!-- Generator: Adobe Illustrator 17.1.0, SVG Export Plug-In . SVG Version: 6.00 Build 0)  -->
<!DOCTYPE svg PUBLIC "-//W3C//DTD SVG 1.1//EN" "http://www.w3.org/Graphics/SVG/1.1/DTD/svg11.dtd">
<svg version="1.1" id="Layer_1" xmlns="http://www.w3.org/2000/svg" xmlns:xlink="http://www.w3.org/1999/xlink" x="0px" y="0px"
	 viewBox="0 0 149 132" enable-background="new 0 0 149 132" xml:space="preserve">
<g>
	<polygon fill="#E44D26" points="38.4,118.4 30.3,28.1 118.7,28.1 110.6,118.3 74.4,128.4 	"/>
	<polygon fill="#F16529" points="74.5,120.7 103.7,112.6 110.6,35.5 74.5,35.5 	"/>
	<polygon fill="#EBEBEB" points="74.5,69 59.9,69 58.8,57.6 74.5,57.6 74.5,46.6 74.5,46.6 46.8,46.6 47,49.5 49.7,80 74.5,80 	"/>
	<polygon fill="#EBEBEB" points="74.5,97.7 74.5,97.7 62.1,94.4 61.3,85.6 55.4,85.6 50.2,85.6 51.8,102.9 74.4,109.2 74.5,109.2 	
		"/>
	<path d="M38.5,3.6h5.6v5.6h5.1V3.6h5.6v16.8h-5.6v-5.6h-5.1v5.6h-5.6L38.5,3.6L38.5,3.6z"/>
	<path d="M62.3,9.2h-5V3.6h15.5v5.6h-5v11.2h-5.6L62.3,9.2L62.3,9.2z"/>
	<path d="M75.4,3.6h5.9l3.6,5.9l3.6-5.9h5.9v16.8h-5.6v-8.3l-3.9,6h-0.1l-3.9-6v8.3h-5.5V3.6z"/>
	<path d="M97.1,3.6h5.6v11.3h7.9v5.6H97.1V3.6z"/>
	<polygon fill="#FFFFFF" points="74.5,69 74.5,80 88.1,80 86.8,94.4 74.5,97.7 74.5,109.2 97.1,102.9 97.3,101.1 99.9,71.9 
		100.2,69 97.2,69 	"/>
	<polygon fill="#FFFFFF" points="74.5,46.6 74.5,53.5 74.5,57.6 74.5,57.6 101.2,57.6 101.2,57.6 101.2,57.6 101.4,55.2 101.9,49.5 
		102.2,46.6 	"/>
</g>
</svg>
