<?xml version="1.0" encoding="utf-8"?>
<!-- Generator: Adobe Illustrator 17.1.0, SVG Export Plug-In . SVG Version: 6.00 Build 0)  -->
<!DOCTYPE svg PUBLIC "-//W3C//DTD SVG 1.1//EN" "http://www.w3.org/Graphics/SVG/1.1/DTD/svg11.dtd">
<svg version="1.1" id="Layer_1" xmlns="http://www.w3.org/2000/svg" xmlns:xlink="http://www.w3.org/1999/xlink" x="0px" y="0px"
	 viewBox="0 0 149 132" enable-background="new 0 0 149 132" xml:space="preserve">
<g>
	<path fill="#1A1918" d="M138.5,92.7l7.2,0c0,0-13.4,18.2-14.5,19.7c-0.4,0.5-0.9,1-1.2,1.6c-0.7,1.6-1.4,5.2-1.4,5.2l-6.6,0
		c0,0,1-3.7,1-5.7c0-1.7-0.9-3.4-1.4-5.2c-0.5-1.7-1.2-5.2-1.2-5.2h6.8l0.9,3.8L138.5,92.7"/>
	<path fill="#1A1918" d="M124.8,96.5c1.3,0.8,2.2,5.2,2.2,5.2s-7,0.1-10.8,0.1h-3.3l-4,17.3h-6.1c0,0,3.8-18.9,4.7-22.3
		c0.3-1.1,2-0.9,4.9-0.9h4.6C119.9,96,123.4,95.6,124.8,96.5"/>
	<path fill="#1A1918" d="M96.5,105c0,0,0.2-1.1-0.6-2.4c-0.7-1.1-1.4-1.4-3.2-1.4c-5.3-0.2-5.2,3.8-5.2,3.8L96.5,105L96.5,105z
		 M102.2,100.5c0.8,2.8-0.7,9.4-0.7,9.4s-7.7-0.1-12,0c-1.3,0-2.9-0.1-3.3,0.5c-0.6,0.9,0.2,2.2,0.8,2.7c0.7,0.6,2.2,0.7,2.7,0.8
		c3.4,0.4,10.6,0.1,10.6,0.1l-1.2,5.5c0,0-10.2,0.5-15.2-0.7c-1-0.2-1.9-0.7-2.6-1.4c-0.2-0.2-0.3-0.4-0.5-0.7
		c-0.1-0.2-0.5-0.8-0.7-1.2c-1.2-3.1,0.1-9,1.4-12.2c0.1-0.4,0.3-0.8,0.5-1.2c0.2-0.5,0.4-1.1,0.6-1.3c0.1-0.2,0.3-0.3,0.4-0.5
		c0.2-0.2,0.3-0.4,0.5-0.6c0.5-0.5,1-0.9,1.6-1.4c2.1-1.6,5.9-2.8,10.5-2.3c1.7,0.2,4.3,0.8,5.6,2.6
		C101.8,98.8,102,99.8,102.2,100.5L102.2,100.5L102.2,100.5z"/>
	<path fill="#1A1918" d="M74.3,96l5.9,0c0,0-3.3,15.6-5,23.2h-6.8c-4.8,0-9,0.6-10.8-2.8c-1.7-3.3-0.1-8.7,0.7-12.4
		C58.9,101.4,60,96,60,96l6.1-0.1c0,0-1.7,8.3-2.4,12.5c-0.3,1.5-0.8,2.9-0.2,4c0.5,1,1.3,1.1,3.5,1.2c0.7,0,3,0,3,0L74.3,96"/>
	<path fill="#1A1918" d="M46.6,107.3c0.6-2.2,1.5-4.6,1.4-6.6c-0.1-2.1-1.9-4-3-4.5c-3.5-1.2-6.7,0.5-8,1.9
		c-1.7,1.8-2.2,3.9-2.8,6.8c-0.4,2.1-0.8,4.4,0,6.1c1.4,3,5.8,2.3,10.5,2.3C45.4,111.5,46,109.3,46.6,107.3L46.6,107.3L46.6,107.3z
		 M54.8,98.6c0.7,4.9-1.9,10.3-3.7,15c1.8,0.2,3.4,0,3.5,0.1c0.1,0.2-1.2,5.6-1.7,5.6c-1.4,0-6.2,0.1-8.2,0.1
		c-6.5,0-12.6,0.4-15.7-2.8c-1.3-1.3-2.1-3.6-2.3-5.2c-0.4-2.6,0.1-5.6,0.7-8c0.6-2.2,1.3-4.2,2.3-6.1c2.7-4.8,7.5-8.3,15.5-7.5
		c1.5,0.2,3.8,0.8,5.2,1.6c0.1,0.1,0.4,0.3,0.5,0.4C52.7,93.1,54.4,96,54.8,98.6L54.8,98.6L54.8,98.6z"/>
	<path fill="#1A1918" d="M26,96c-0.4,1.8-0.8,3.8-1.2,5.6h-6.6c0.5-2,0.9-3.9,1.4-5.6C21.7,96,23.7,96,26,96"/>
	<path fill="#1A1918" d="M18,103.3h6.3c-0.8,4.6-2.5,12-3.8,17.1c-0.8,3.2-1.3,5.6-3.5,7.3c-0.2,0.2-0.3,0.1-0.5,0.2
		c-0.4,0.4-2.3,0.8-3.3,0.9c-1.7,0.2-3.6,0-5.6,0c0.5-2,1.1-4.3,1.6-6.1c5,0.6,5.1-4.1,6.1-8.7C16,111.4,17.7,104.3,18,103.3"/>
	<g transform="translate(0.000000, 8.827586)">
		<path fill="#21609B" d="M115.1,54.3l-0.4,0.9c-6.1,11.9-17,19.2-32.4,19.6c-7.2,0.1-14.1-1.7-18.6-3.7C54,66.7,45.8,58.6,41.3,50
			c-6.4-12.4-7.6-29.6,5.8-42.5c0.2,0-1.6,2.8-1.4,2.8l-0.4,1.2c-9.6,30,20,55.8,48.7,52.8C100.9,63.6,109.7,59.8,115.1,54.3"/>
		<path fill="#21609B" d="M97.7,41.9c7.2,0,14.8-3.3,19.2-8.1c-3.9,9.9-15.2,16.3-30.4,14.3c-12.7-1.7-24.8-14.5-26.1-27.3
			c-0.9-9.3,2.3-14.9,7.7-21.7c-1.9,3.5-2.6,6.3-2.7,8C63.4,27.3,81.6,41.8,97.7,41.9"/>
		<path fill="#21609B" d="M116.2,16.9c-1.1,2.6-7.6,7.4-10.4,8.1c-11.3,2.4-18.6-3-22.3-9.1c-0.6-0.9-1.6-3.4-1.8-4
			c-1.5-5-0.8-12.6,3.6-16.5C83.9-1,83.7,3.4,84.4,6.2c0.4,1.7,1.7,4.7,3,6.5c2.3,3.4,3.8,4.2,6.8,6c1.4,0.8,2.8,1.5,3.4,1.6
			C100.5,21.2,106.5,23.4,116.2,16.9"/>
	</g>
</g>
</svg>
