<?xml version="1.0" encoding="utf-8"?>
<!-- Generator: Adobe Illustrator 17.1.0, SVG Export Plug-In . SVG Version: 6.00 Build 0)  -->
<!DOCTYPE svg PUBLIC "-//W3C//DTD SVG 1.1//EN" "http://www.w3.org/Graphics/SVG/1.1/DTD/svg11.dtd">
<svg version="1.1" id="Layer_1" xmlns="http://www.w3.org/2000/svg" xmlns:xlink="http://www.w3.org/1999/xlink" x="0px" y="0px"
	 viewBox="0 0 149 132" enable-background="new 0 0 149 132" xml:space="preserve">
<g enable-background="new    ">
	<g enable-background="new    ">
		<g>
			<g>
				<g id="XMLID_1_">
					<g>
						<path fill="#EB7077" d="M126.3,68.7h21.6c-7.5,2.5-9.9,7.5-11.2,21.8c-0.9,10.2-5.6,12.8-5.6,12.8c-3.4,0-6.9-14.7-9.9-30.3
							C122.3,70.4,123.9,69.1,126.3,68.7z"/>
						<path fill="#EB7077" d="M130.9,103.2h-21.6c3.8,0,6.5-7.3,8.1-16.5c1.1-6.2,2.1-10.7,3.6-13.8
							C124,88.6,127.5,103.2,130.9,103.2z"/>
						<path fill="#F6A2AD" d="M121,72.9c-1.6,2.9-2.6,7.5-3.6,13.8c-1.6,9.3-4.2,16.5-8.1,16.5c-4.1-0.9-7.4-16.5-11.8-40.3
							c-0.1-0.8-0.3-1.5-0.4-2.2c3.3-17.2,6.7-32,10.2-32h1.2c4.1,0.9,7.4,16.5,11.8,40.3C120.6,70.4,120.7,71.6,121,72.9z"/>
						<path fill="#EB7077" d="M87,28.8h20.4c-3.4,0-7,14.8-10.2,32C94.1,44.6,90.6,28.8,87,28.8z"/>
						<path fill="#EB7077" d="M97.2,60.8c-0.3,1.7-0.7,3.4-0.9,5.3c-4.9,26.7-7.8,36.5-11.2,37.3c-3.8,0-7.5-17.3-10.6-34.3
							c0-0.3-0.1-0.5-0.1-0.8c0.1-0.8,0.3-1.5,0.4-2.2c4.9-26.9,7.8-36.5,11.1-37.3H87C90.6,28.8,94.1,44.6,97.2,60.8z"/>
						<path fill="#EB7077" d="M85,103.2H63.5c3.7,0,7.4-16.5,10.7-35.1c0,0.3,0.1,0.5,0.1,0.8C77.5,86,81.3,103.2,85,103.2z"/>
						<path fill="#F6A2AD" d="M74.3,68.3c-3.4,18.5-7.1,35.1-10.7,35.1c-4.2-1.1-7.4-16.7-11.9-40.3c-0.1-0.8-0.3-1.5-0.4-2.2
							c3.3-17.2,6.7-32,10.2-32h1.2C66.8,29.7,69.9,45,74.3,68.3z"/>
						<path fill="#EB7077" d="M41.1,28.8h20.4c-3.4,0-6.9,14.8-10.2,32C48.2,44.6,44.7,28.8,41.1,28.8z"/>
						<path fill="#EB7077" d="M51.3,60.8c-0.3,1.7-0.7,3.4-0.9,5.3c-4.9,26.7-7.8,36.5-11.2,37.3c-3.8,0-2.4-0.7-4.8-11.4
							c-2.4-10.7-4.2-17.1-6.7-20.4c0.4-1.9,0.7-3.7,1.1-5.6c5-26.9,7.9-36.5,11.2-37.3h1.2C44.7,28.8,48.2,44.6,51.3,60.8z"/>
						<path fill="#EB7077" d="M39.1,103.2H17.6c3.4,0,6.9-14.7,10.2-31.7c2.4,3.3,4.2,9.7,6.7,20.4
							C36.9,102.6,35.3,103.2,39.1,103.2z"/>
						<path fill="#F6A2AD" d="M27.7,71.5c-3.3,17.1-6.7,31.7-10.2,31.7c-0.4-0.5-2.8,0-5-13.2C10.5,77.8,7,70.2,1.2,68.7h21.6
							C24.8,68.8,26.3,69.6,27.7,71.5z"/>
					</g>
				</g>
			</g>
		</g>
	</g>
</g>
<g enable-background="new    ">
	<g enable-background="new    ">
		<g>
			<g>
				<g id="XMLID_2_">
					<g>
						<path fill="#EB7077" d="M126.3,68.6h21.6c-7.5,2.5-9.9,7.5-11.2,21.8c-0.9,10.2-5.6,12.8-5.6,12.8c-3.4,0-6.9-14.7-9.9-30.3
							C122.3,70.4,123.9,69,126.3,68.6z"/>
						<path fill="#EB7077" d="M130.9,103.2h-21.6c3.8,0,6.5-7.3,8.1-16.5c1.1-6.2,2.1-10.7,3.6-13.8
							C124,88.5,127.5,103.2,130.9,103.2z"/>
						<path fill="#F6A2AD" d="M121,72.9c-1.6,2.9-2.6,7.5-3.6,13.8c-1.6,9.3-4.2,16.5-8.1,16.5c-4.1-0.9-7.4-16.5-11.8-40.3
							c-0.1-0.8-0.3-1.5-0.4-2.2c3.3-17.1,6.7-31.9,10.2-31.9h1.2c4.1,0.9,7.4,16.5,11.8,40.3C120.6,70.2,120.7,71.6,121,72.9z"/>
						<path fill="#EB7077" d="M87,28.7h20.4c-3.4,0-7,14.8-10.2,32C94.1,44.6,90.6,28.7,87,28.7z"/>
						<path fill="#EB7077" d="M97.2,60.7c-0.3,1.7-0.7,3.4-0.9,5.3c-4.9,26.7-7.8,36.5-11.2,37.3c-3.8,0-7.5-17.3-10.6-34.3
							c0-0.3-0.1-0.5-0.1-0.8c0.1-0.8,0.3-1.5,0.4-2.2c4.9-26.9,7.8-36.5,11.1-37.3H87C90.6,28.7,94.1,44.6,97.2,60.7z"/>
						<path fill="#EB7077" d="M85,103.2H63.5c3.7,0,7.4-16.5,10.7-35.1c0,0.3,0.1,0.5,0.1,0.8C77.5,86,81.3,103.2,85,103.2z"/>
						<path fill="#F6A2AD" d="M74.3,68.2c-3.4,18.5-7.1,35.1-10.7,35.1c-4.1-0.9-7.4-16.5-11.8-40.3c-0.1-0.8-0.3-1.5-0.4-2.2
							c3.2-17.2,6.6-32,10.1-32h1.2C66.8,29.6,69.9,44.8,74.3,68.2z"/>
						<path fill="#EB7077" d="M41.1,28.7h20.4c-3.4,0-6.9,14.8-10.2,32C48.2,44.6,44.7,28.7,41.1,28.7z"/>
						<path fill="#EB7077" d="M51.3,60.7c-0.3,1.7-0.7,3.4-0.9,5.3c-4.9,26.7-7.8,36.5-11.2,37.3c-3.8,0-2.4-0.7-4.8-11.4
							c-2.4-10.7-4.2-17.1-6.7-20.4c0.4-1.9,0.7-3.7,1.1-5.6c5-26.9,7.9-36.5,11.2-37.3h1.2C44.7,28.7,48.2,44.6,51.3,60.7z"/>
						<path fill="#EB7077" d="M39.1,103.2H17.6c3.4,0,6.9-14.7,10.2-31.7c2.4,3.3,4.2,9.7,6.7,20.4
							C36.9,102.5,35.3,103.2,39.1,103.2z"/>
						<path fill="#F6A2AD" d="M27.7,71.4c-3.3,17.1-6.7,31.7-10.2,31.7c-0.4-0.5-2.8,0-5-13.2C10.5,77.8,7,70.1,1.2,68.6h21.6
							C24.8,68.6,26.3,69.6,27.7,71.4z"/>
					</g>
				</g>
			</g>
		</g>
	</g>
</g>
</svg>
