<?xml version="1.0" encoding="utf-8"?>
<!-- Generator: Adobe Illustrator 17.1.0, SVG Export Plug-In . SVG Version: 6.00 Build 0)  -->
<!DOCTYPE svg PUBLIC "-//W3C//DTD SVG 1.1//EN" "http://www.w3.org/Graphics/SVG/1.1/DTD/svg11.dtd">
<svg version="1.1" id="Layer_1" xmlns="http://www.w3.org/2000/svg" xmlns:xlink="http://www.w3.org/1999/xlink" x="0px" y="0px"
	 viewBox="0 0 149 132" enable-background="new 0 0 149 132" xml:space="preserve">
<g>
	
		<linearGradient id="SVGID_1_" gradientUnits="userSpaceOnUse" x1="-44.253" y1="-139.8244" x2="-44.253" y2="-190.4353" gradientTransform="matrix(0.2685 0 0 -0.2685 31.6684 70.8897)">
		<stop  offset="0" style="stop-color:#04B6F0"/>
		<stop  offset="1" style="stop-color:#3ECAF0"/>
	</linearGradient>
	<path fill="url(#SVGID_1_)" d="M27.8,113.4c0,2.4-0.7,4.4-2.2,6c-1.5,1.7-3.4,2.6-5.8,2.6s-4.3-0.9-5.8-2.6c-1.4-1.7-2.2-3.6-2.2-6
		c0-2.4,0.7-4.4,2.2-6c1.5-1.7,3.4-2.6,5.8-2.6s4.3,0.9,5.8,2.6C27.1,109,27.8,111,27.8,113.4L27.8,113.4z M23,113.4
		c0-1.1-0.3-2-0.8-2.8c-0.6-0.9-1.4-1.3-2.5-1.3s-1.9,0.4-2.5,1.3c-0.5,0.8-0.8,1.7-0.8,2.8c0,1.1,0.3,2,0.8,2.8
		c0.6,0.9,1.4,1.3,2.5,1.3s1.9-0.4,2.5-1.3C22.7,115.4,23,114.5,23,113.4z"/>
	
		<linearGradient id="SVGID_2_" gradientUnits="userSpaceOnUse" x1="19.5922" y1="-144.7247" x2="19.5922" y2="-213.8852" gradientTransform="matrix(0.2685 0 0 -0.2685 31.6684 70.8897)">
		<stop  offset="0" style="stop-color:#04B6F0"/>
		<stop  offset="1" style="stop-color:#3ECAF0"/>
	</linearGradient>
	<path fill="url(#SVGID_2_)" d="M44.8,113.4c0,2.3-0.7,4.1-2,5.8c-1.4,1.9-3.2,2.8-5.3,2.8c-1.6,0-2.9-0.5-3.8-1.3
		c0,0.2,0,0.7,0.1,1.5c0,0.8,0.1,1.5,0.1,2c0,2.8-0.8,4.2-2.5,4.2c-0.7,0-1.3-0.2-1.7-0.7c-0.4-0.5-0.7-1.1-0.7-1.8v-18.2
		c0-0.7,0.2-1.3,0.7-1.8c0.5-0.5,1-0.7,1.7-0.7c1,0,1.8,0.5,2.2,1.5c1-1.2,2.4-1.8,4-1.8c2.2,0,3.9,0.9,5.3,2.8
		C44.1,109.2,44.8,111.2,44.8,113.4L44.8,113.4z M40.1,113.4c0-1.1-0.3-2-0.8-2.8c-0.6-0.9-1.4-1.3-2.5-1.3c-1.1,0-1.9,0.4-2.5,1.3
		c-0.5,0.8-0.8,1.7-0.8,2.8c0,1.1,0.3,2,0.8,2.8c0.6,0.9,1.4,1.3,2.5,1.3c1.1,0,1.9-0.4,2.5-1.3C39.9,115.4,40.1,114.5,40.1,113.4z"
		/>
	
		<linearGradient id="SVGID_3_" gradientUnits="userSpaceOnUse" x1="83.2539" y1="-139.8244" x2="83.2539" y2="-190.4353" gradientTransform="matrix(0.2685 0 0 -0.2685 31.6684 70.8897)">
		<stop  offset="0" style="stop-color:#04B6F0"/>
		<stop  offset="1" style="stop-color:#3ECAF0"/>
	</linearGradient>
	<path fill="url(#SVGID_3_)" d="M61.9,112.9c0,0.8-0.2,1.4-0.6,1.7c-0.4,0.3-1,0.5-1.8,0.5h-8.4c0,0.9,0.4,1.6,1.3,2.1
		c0.7,0.4,1.5,0.6,2.5,0.6c0.8,0,1.7-0.3,2.8-0.8c1.1-0.5,1.8-0.8,2.1-0.8c0.6,0,1,0.2,1.4,0.6c0.4,0.4,0.6,0.9,0.6,1.5
		c0,1.3-1,2.3-2.9,3.1c-1.5,0.5-3,0.8-4.5,0.8c-2.5,0-4.4-0.8-6-2.5c-1.5-1.7-2.3-3.6-2.3-6.1c0-2.4,0.8-4.3,2.4-6
		c1.6-1.7,3.5-2.6,5.9-2.6c2.2,0,3.9,0.8,5.4,2.4C61.3,108.8,61.9,110.7,61.9,112.9L61.9,112.9z M57.2,111.8c0-0.7-0.4-1.4-1-2
		c-0.7-0.6-1.3-0.9-2.1-0.9s-1.5,0.3-2.1,0.9c-0.7,0.6-1,1.3-1,2H57.2z"/>
	
		<linearGradient id="SVGID_4_" gradientUnits="userSpaceOnUse" x1="144.7142" y1="-139.5833" x2="144.7142" y2="-189.2809" gradientTransform="matrix(0.2685 0 0 -0.2685 31.6684 70.8897)">
		<stop  offset="0" style="stop-color:#04B6F0"/>
		<stop  offset="1" style="stop-color:#3ECAF0"/>
	</linearGradient>
	<path fill="url(#SVGID_4_)" d="M77.8,119.2c0,0.7-0.2,1.3-0.7,1.8c-0.5,0.5-1,0.7-1.7,0.7c-1.7,0-2.5-1.3-2.5-3.9
		c0-0.5,0-1.3,0.1-2.4s0.1-1.9,0.1-2.4c0-2.8-0.9-4.1-2.7-4.1c-1.8,0-2.7,1.4-2.7,4.1c0,0.5,0,1.3,0.1,2.4s0.1,1.9,0.1,2.4
		c0,2.7-0.8,3.9-2.5,3.9c-0.7,0-1.3-0.2-1.7-0.7c-0.5-0.5-0.7-1.1-0.7-1.8v-11.6c0-0.7,0.2-1.3,0.7-1.8c0.4-0.5,1-0.7,1.7-0.7
		c1.1,0,1.9,0.5,2.4,1.5c0.8-1.2,2.1-1.8,4-1.8c1.8,0,3.3,0.5,4.2,1.4c1.1,1,1.6,2.4,1.6,4.1L77.8,119.2L77.8,119.2z"/>
	
		<linearGradient id="SVGID_5_" gradientUnits="userSpaceOnUse" x1="201.5877" y1="-139.8244" x2="201.5877" y2="-190.4353" gradientTransform="matrix(0.2685 0 0 -0.2685 31.6684 70.8897)">
		<stop  offset="0" style="stop-color:#04B6F0"/>
		<stop  offset="1" style="stop-color:#3ECAF0"/>
	</linearGradient>
	<path fill="url(#SVGID_5_)" d="M92.6,118.8c0,1.1-0.7,1.9-2.1,2.6c-1.1,0.5-2.3,0.8-3.5,0.8c-2.4,0-4.3-0.9-5.8-2.6
		c-1.4-1.7-2.2-3.6-2.2-6c0-2.4,0.7-4.4,2.2-6.1s3.3-2.5,5.7-2.5c1.4,0,2.6,0.2,3.5,0.6c1.4,0.5,2.1,1.4,2.1,2.6
		c0,0.6-0.2,1.1-0.5,1.6c-0.4,0.4-0.8,0.7-1.4,0.7c-0.4,0-1-0.1-1.7-0.4c-0.7-0.3-1.3-0.4-1.7-0.4c-1.1,0-2,0.4-2.7,1.2
		c-0.6,0.7-0.9,1.7-0.9,2.8s0.3,2,0.8,2.8c0.6,0.9,1.4,1.3,2.5,1.3c0.5,0,1.1-0.1,1.9-0.4s1.4-0.4,1.8-0.4c0.5,0,1,0.2,1.4,0.7
		C92.4,117.8,92.6,118.2,92.6,118.8L92.6,118.8z"/>
	
		<linearGradient id="SVGID_6_" gradientUnits="userSpaceOnUse" x1="261.2133" y1="-139.8244" x2="261.2133" y2="-190.4353" gradientTransform="matrix(0.2685 0 0 -0.2685 31.6684 70.8897)">
		<stop  offset="0" style="stop-color:#04B6F0"/>
		<stop  offset="1" style="stop-color:#3ECAF0"/>
	</linearGradient>
	<path fill="url(#SVGID_6_)" d="M109.7,119.2c0,0.7-0.2,1.3-0.7,1.8c-0.5,0.5-1,0.7-1.7,0.7c-1,0-1.8-0.5-2.2-1.5
		c-1,1.2-2.4,1.8-4,1.8c-2.2,0-3.9-0.9-5.4-2.8c-1.3-1.7-1.9-3.6-1.9-5.8c0-2.3,0.6-4.1,1.9-5.8c1.4-1.8,3.2-2.8,5.4-2.8
		c1.7,0,3.1,0.6,4,1.8c0.4-1,1.2-1.5,2.2-1.5c0.7,0,1.2,0.2,1.7,0.7c0.5,0.5,0.7,1.1,0.7,1.7V119.2L109.7,119.2z M105,113.4
		c0-1.1-0.3-2-0.8-2.8c-0.6-0.9-1.4-1.3-2.5-1.3s-1.9,0.4-2.5,1.3c-0.5,0.8-0.8,1.7-0.8,2.8c0,1.1,0.3,2,0.8,2.8
		c0.6,0.9,1.4,1.3,2.5,1.3s1.9-0.4,2.5-1.3C104.8,115.4,105,114.5,105,113.4L105,113.4z"/>
	
		<linearGradient id="SVGID_7_" gradientUnits="userSpaceOnUse" x1="316.0688" y1="-139.5833" x2="316.0688" y2="-189.2809" gradientTransform="matrix(0.2685 0 0 -0.2685 31.6684 70.8897)">
		<stop  offset="0" style="stop-color:#04B6F0"/>
		<stop  offset="1" style="stop-color:#3ECAF0"/>
	</linearGradient>
	<path fill="url(#SVGID_7_)" d="M121.7,107.3c0,1-0.5,1.7-1.5,2.1c-0.9,0.3-1.8,0.6-2.8,1c-1,0.6-1.5,1.6-1.5,3.2v5.8
		c0,0.7-0.2,1.3-0.7,1.8c-0.5,0.5-1,0.7-1.7,0.7s-1.3-0.2-1.7-0.7c-0.5-0.5-0.7-1.1-0.7-1.8v-11.6c0-0.7,0.2-1.3,0.7-1.8
		c0.5-0.5,1-0.7,1.7-0.7c1.1,0,1.9,0.5,2.4,1.5c1-1.2,2.1-1.8,3.3-1.8c0.7,0,1.3,0.2,1.7,0.7C121.5,106,121.7,106.6,121.7,107.3
		L121.7,107.3z"/>
	
		<linearGradient id="SVGID_8_" gradientUnits="userSpaceOnUse" x1="359.9165" y1="-124.5757" x2="359.9165" y2="-189.2809" gradientTransform="matrix(0.2685 0 0 -0.2685 31.6684 70.8897)">
		<stop  offset="0" style="stop-color:#04B6F0"/>
		<stop  offset="1" style="stop-color:#3ECAF0"/>
	</linearGradient>
	<path fill="url(#SVGID_8_)" d="M134.1,107.5c0,1.1-0.4,1.7-1.2,2c-0.4,0.1-1.3,0.2-2.6,0.2v9.6c0,0.7-0.2,1.3-0.7,1.8
		c-0.5,0.5-1,0.7-1.7,0.7s-1.2-0.2-1.7-0.7c-0.5-0.5-0.7-1.1-0.7-1.8v-9.6c-1,0-1.7-0.1-2.2-0.4c-0.6-0.3-0.9-1-0.9-1.9
		s0.3-1.5,1-1.8c0.4-0.2,1.1-0.4,2.1-0.4v-2.1c0-2.4,0.8-3.5,2.4-3.5c1.6,0,2.4,1.2,2.4,3.5v2.1c1.3,0,2.2,0.1,2.6,0.2
		C133.7,105.8,134.1,106.4,134.1,107.5L134.1,107.5z"/>
	<g>
		
			<linearGradient id="SVGID_9_" gradientUnits="userSpaceOnUse" x1="183.0054" y1="204.7493" x2="183.0054" y2="31.7827" gradientTransform="matrix(0.2685 0 0 -0.2685 31.6684 70.8897)">
			<stop  offset="0" style="stop-color:#04B6F0"/>
			<stop  offset="1" style="stop-color:#3ECAF0"/>
		</linearGradient>
		<path fill="url(#SVGID_9_)" d="M137.2,28c0-4.7-8.8-6.9-31.5-6.9c-53.3,0-66.8-2.3-81.3-17.5c6.1,9.2,9.5,26.3,65.7,25.5
			c58.7-0.9,23,15.2,12.5,33.3C121.4,45.6,137.1,34.5,137.2,28L137.2,28z"/>
		
			<linearGradient id="SVGID_10_" gradientUnits="userSpaceOnUse" x1="84.1187" y1="-4.4487" x2="84.1187" y2="-51.896" gradientTransform="matrix(0.2685 0 0 -0.2685 31.6684 70.8897)">
			<stop  offset="0" style="stop-color:#04B6F0"/>
			<stop  offset="1" style="stop-color:#3ECAF0"/>
		</linearGradient>
		<path fill="url(#SVGID_10_)" d="M62.3,76.8c0,4.4-3.6,8.1-8.1,8.1s-8.1-3.6-8.1-8.1s3.6-8.1,8.1-8.1l0,0
			C58.8,68.7,62.3,72.4,62.3,76.8z"/>
		
			<linearGradient id="SVGID_11_" gradientUnits="userSpaceOnUse" x1="86.6332" y1="0.1588" x2="86.6332" y2="6.117503e-002" gradientTransform="matrix(670.7543 0 0 130.3988 -58018.5742 60.7609)">
			<stop  offset="0" style="stop-color:#04B6F0"/>
			<stop  offset="1" style="stop-color:#3ECAF0"/>
		</linearGradient>
		<path fill="url(#SVGID_11_)" d="M99.1,76.8c0,4.4-3.6,8.1-8.1,8.1c-4.4,0-8.1-3.6-8.1-8.1s3.6-8.1,8.1-8.1l0,0
			C95.4,68.7,99.1,72.4,99.1,76.8z"/>
	</g>
</g>
</svg>
