<?xml version="1.0" encoding="utf-8"?>
<!-- Generator: Adobe Illustrator 17.1.0, SVG Export Plug-In . SVG Version: 6.00 Build 0)  -->
<!DOCTYPE svg PUBLIC "-//W3C//DTD SVG 1.1//EN" "http://www.w3.org/Graphics/SVG/1.1/DTD/svg11.dtd">
<svg version="1.1" id="Layer_1" xmlns="http://www.w3.org/2000/svg" xmlns:xlink="http://www.w3.org/1999/xlink" x="0px" y="0px"
	 viewBox="0 0 149 132" enable-background="new 0 0 149 132" xml:space="preserve">
<g>
	
		<linearGradient id="SVGID_1_" gradientUnits="userSpaceOnUse" x1="43.0221" y1="85.1706" x2="43.3839" y2="85.753" gradientTransform="matrix(144.8 0 0 -196 -6225.0771 16827.543)">
		<stop  offset="2.000000e-002" style="stop-color:#765AF8"/>
		<stop  offset="0.38" style="stop-color:#B345F1"/>
		<stop  offset="0.76" style="stop-color:#FA3293"/>
		<stop  offset="0.94" style="stop-color:#FF318C"/>
	</linearGradient>
	<path fill="url(#SVGID_1_)" d="M12.1,27.6l21.2-24L76.8,13l5.8,17.7l-4.3,30.8l-17.3-8.8L62,77.3v21.4l-38,0.4L12.1,27.6z"/>
	
		<linearGradient id="SVGID_2_" gradientUnits="userSpaceOnUse" x1="43.168" y1="85.4595" x2="42.9993" y2="85.9068" gradientTransform="matrix(175.2 0 0 -156.8 -7460.2876 13486.3584)">
		<stop  offset="0.18" style="stop-color:#765AF8"/>
		<stop  offset="0.24" style="stop-color:#8655F6"/>
		<stop  offset="0.34" style="stop-color:#9F4CF3"/>
		<stop  offset="0.44" style="stop-color:#AE47F2"/>
		<stop  offset="0.52" style="stop-color:#B345F1"/>
	</linearGradient>
	<polygon fill="url(#SVGID_2_)" points="51.5,76.7 53.8,47.3 89.1,11 120.7,16.9 136.9,57.2 119.9,74 92.4,69.5 75.1,87.4 	"/>
	
		<linearGradient id="SVGID_3_" gradientUnits="userSpaceOnUse" x1="43.4262" y1="85.4351" x2="43.0859" y2="85.6558" gradientTransform="matrix(202 0 0 -240.8 -8647.2549 20678.6113)">
		<stop  offset="2.000000e-002" style="stop-color:#765AF8"/>
		<stop  offset="0.38" style="stop-color:#B345F1"/>
	</linearGradient>
	<polygon fill="url(#SVGID_3_)" points="89.1,11 38.4,56.1 48.2,113.8 90.3,128.4 136.9,100.5 	"/>
	<rect x="35.5" y="27" width="78" height="78"/>
	<path fill="#FFFFFF" d="M42.9,90.4h29.2v4.9H42.9V90.4z M42.5,37.2h13.3c7.8,0,12.5,4.5,12.5,11.1c0,7.4-5.8,11.3-13.1,11.3h-5.5
		v9.7h-7.2V37.2L42.5,37.2z M55.4,53.7c3.4,0,5.7-2.3,5.7-5.1c0-3.1-2.1-4.9-5.8-4.9h-5.5v9.9H55.4z M70,64.8l4.3-5.1
		c2.9,2.3,6,3.9,9.7,3.9c2.9,0,4.7-1.2,4.7-3.1c0-1.8-1.2-2.7-6.6-4.1c-6.6-1.8-10.7-3.5-10.7-9.9v-0.2c0-5.8,4.7-9.7,11.3-9.7
		c4.4,0,8.6,1.4,12.1,4.1l-3.7,5.5c-2.9-1.9-5.7-3.1-8.4-3.1s-4.1,1.2-4.1,2.9c0,2.1,1.4,2.9,7,4.3c6.6,1.8,10.3,4.1,10.3,9.7
		c0,6.4-4.9,10.1-11.9,10.1C78.9,70.2,73.9,68.3,70,64.8z"/>
</g>
</svg>
