<?xml version="1.0" encoding="utf-8"?>
<!-- Generator: Adobe Illustrator 17.1.0, SVG Export Plug-In . SVG Version: 6.00 Build 0)  -->
<!DOCTYPE svg PUBLIC "-//W3C//DTD SVG 1.1//EN" "http://www.w3.org/Graphics/SVG/1.1/DTD/svg11.dtd">
<svg version="1.1" id="Layer_1" xmlns="http://www.w3.org/2000/svg" xmlns:xlink="http://www.w3.org/1999/xlink" x="0px" y="0px"
	 viewBox="0 0 149 132" enable-background="new 0 0 149 132" xml:space="preserve">
<g>
	<path fill="#8CC84B" d="M53.5,80c-2,1.2-5,3.2-7.3,5.4c-3.8,3.6-4.6,8.6-2.6,9.7c1.9,1.1,6.2-0.2,9.3-3.6c3.2-3.5,4.6-8,3.2-13.1
		c-0.2,0.1-0.3,0.2-0.5,0.3l0,0l-0.2,0.1C54.6,79.3,53.9,79.7,53.5,80L53.5,80z M109.2,78.4c-1.1,2.4-1.2,3.2-0.8,3.5
		c1.6-0.6,4.3-2,4.3-5.8c0-0.6-0.1-1.2-0.3-1.8C110.6,75.8,109.6,77.4,109.2,78.4L109.2,78.4z M126.7,71c-4.4-0.5-7.8,0.1-10.4,1.2
		c0.5,1.3,0.9,2.6,0.9,3.9c0.1,2.9-1.9,5.1-4,6.6c-1.2,0.9-2.5,1.5-3.6,1.9c-0.9,0.4-2,0.8-2.9,0.6c-1.8-0.4-2.8-2-1.6-5.6
		c0.7-1.9,2.6-4.9,5.7-7.4c-0.7-1.5-1.5-3-1.9-4.3c-0.8-2.7-1-4.3-1-4.3s-2.6,5.3-5.9,10.2c-0.2,0.3-0.4,0.6-0.6,0.8
		c0.7,1.5,1.2,3.1,1.2,4.7c0.1,2.9-1.1,5.1-3.2,6.7c-1.1,0.8-2.4,1.4-3.4,1.8c-0.7,0.3-2,0.8-3.9,0.9c-1.1,0.1-2.1,0-2.6-0.4
		c-0.8-0.6-0.9-1.3-0.5-2.3c0.3-0.8,2.9-3.8,5-6.3c0.6-0.7,1.2-1.4,1.7-2.1l0,0c0,0,0.4-0.5,1-1.4c-0.8-1.7-1.8-3.4-2.2-5
		c-0.8-2.7-1-4.3-1-4.3s-2.6,6.7-5.3,12c-2.1,4.1-3.5,6.6-4.1,7.7l0,0c0,0-0.1,0.2-0.3,0.4l-0.1,0.2l0,0c-0.7,1-2.3,3.1-3.9,3.1
		c-4.3,0-2.7-8.8-2.7-8.8s-1.3,3.2-2.7,6c-1.2,2.3-2.2,4.2-4.5,4.2c-0.7,0-1.7,0-2.6-0.8c-2-1.9-3.5-6.7-3.2-10.4
		c0.3-3.1,0.7-5.3,1.4-7.1c-1.2,0.6-2.5,1.4-3.9,2.2l-2.1,1.3l0.1,0.1c1.8,3.4,2.2,10.9-1.6,16.7c-3.9,5.8-11,9.3-18,7.3
		c-2.3-0.6-5.7-5.3-2.7-11.8c2.6-5.7,13-11.2,15.7-12.5l0.8-0.4c-5.5-4.8-19.1-11.2-21-21.1c-0.5-2.8,0.8-9.4,8.9-17.1
		c6.9-6.4,16.4-11.4,25.3-14.5c14.8-5.3,30.5-2.2,32.9,7.3c2.4,9.3-5.7,20.4-16,24.4c-9.2,3.6-16.9,3-20,2c-3.6-1.2-5.7-3.5-6.2-4.8
		c-0.2-0.5-0.5-1.4,0-1.7c0.3-0.2,0.5-0.1,1.4,0.8c0.9,0.9,4.3,3.5,10.8,2.7C86.7,52.4,96.9,39.1,93.7,32c-2.3-5-15.4-7.2-31.8,0.9
		c-20,10-21.1,18.2-21.3,21.4c-0.5,8.6,10.6,13.1,16.6,19.5l0.2,0.3c1.1-0.6,2.3-1.3,3.5-1.9c3-1.7,5.9-3.2,7.2-3.9
		c2.1-3.1,6.4-6.5,9.5-6.5c4.9,0,3.2,7.1,3.2,7.1s0.1-0.3,0.2-0.3c0.1,0,0.7-0.9,2.2-0.4c1.6,0.6,1.2,1.7,1.2,1.8
		c0,0.2-1.9,6.5-2.6,10.6c-0.4,1.9-0.2,3.3,0,3.3c0.2,0,0.5-0.5,0.8-1l0,0c0,0,0.2-0.4,0.6-1.1l0.1-0.2l0,0c0.4-0.8,1-2.1,1.7-3.6
		c1.4-3,6.6-14.7,7.1-16c0.4-1.3,0.7-2.6,0.9-3.2c0.2-0.6,2.1-1,4.2-1c2.2,0,2.4,0.9,2.4,1.1c0,0.2-1,2.8-1.3,4.6
		c-0.2,1.8,0,2.7,0.2,4.2c0.1,1,0.8,2.3,1.5,3.7c2.2-3.7,6.2-10.7,6.6-12.6c0.3-1.3,0.7-2.6,0.9-3.2c0.2-0.6,2.1-1,4.2-1
		c2.2,0,2.4,0.9,2.4,1.1c0,0.2-1,2.8-1.3,4.6c-0.2,1.8,0,2.7,0.2,4.2c0.2,1.3,1.2,3.1,2.2,5c2.7-1.3,5.9-2.2,9.7-2.3
		c1.6,0,3.4,0.1,4.3,0.4V37.8c0-2.1-1.1-4.1-2.9-5.1L77.3,4.4c-1.8-1.1-4.1-1.1-5.9,0L22.7,32.6c-1.8,1.1-2.8,3-2.8,5.1v56.5
		c0,2.1,1,4.1,2.8,5.1l48.8,28.2c1.8,1.1,4,1.1,5.9,0l48.8-28.2c1.8-1.1,2.9-3,2.9-5.1V71.4C128.5,71.2,127.6,71.1,126.7,71
		L126.7,71z M74.1,68c-1,1.2-2.8,4.2-3.7,6.7c-1.7,5-0.9,10.1,0.2,10.4c1.4,0.4,3.6-6.4,4.7-9c0.7-1.6,3.3-9,2.7-9.9
		C77.7,65.5,75.8,66.1,74.1,68L74.1,68z M93.1,85c0,0-0.3,0.3-0.2,0.4c0.2,0.1,0.6,0,1.1-0.3c1.3-0.8,4.2-2.8,4.2-5.8
		c0-0.1,0-0.2,0-0.3c-0.7,0.9-1.3,1.7-1.8,2.3C95.5,82.5,93.1,85,93.1,85L93.1,85z"/>
</g>
</svg>
