<?xml version="1.0" encoding="utf-8"?>
<!-- Generator: Adobe Illustrator 17.1.0, SVG Export Plug-In . SVG Version: 6.00 Build 0)  -->
<!DOCTYPE svg PUBLIC "-//W3C//DTD SVG 1.1//EN" "http://www.w3.org/Graphics/SVG/1.1/DTD/svg11.dtd">
<svg version="1.1" id="Layer_1" xmlns="http://www.w3.org/2000/svg" xmlns:xlink="http://www.w3.org/1999/xlink" x="0px" y="0px"
	 viewBox="0 0 149 132" enable-background="new 0 0 149 132" xml:space="preserve">
<g>
	<path fill="#00749A" d="M67.7,110h-7.1v0.7c2.2,0,2.6,0.5,2.6,3.3v5c0,2.8-0.4,3.3-2.6,3.3c-1.7-0.2-2.8-1.1-4.4-2.9l-1.8-2
		c2.4-0.4,3.7-2,3.7-3.7c0-2.2-1.9-3.8-5.3-3.8h-6.9v0.7c2.2,0,2.6,0.5,2.6,3.3v5c0,2.8-0.4,3.3-2.6,3.3v0.7h7.8v-0.7
		c-2.2,0-2.6-0.5-2.6-3.3v-1.4h0.7l4.4,5.5h11.5c5.6,0,8.1-3,8.1-6.6C75.8,113,73.3,110,67.7,110z M51.2,116.5v-5.2h1.6
		c1.8,0,2.6,1.2,2.6,2.6c0,1.4-0.8,2.6-2.6,2.6L51.2,116.5L51.2,116.5z M67.8,121.9h-0.3c-1.4,0-1.6-0.4-1.6-2.2v-8.6
		c0,0,1.7,0,1.9,0c4.1,0,4.9,3,4.9,5.3C72.6,118.9,71.9,121.9,67.8,121.9z"/>
	<path id="XMLID_15_" fill="#00749A" d="M23.9,117.9l2.7-8c0.8-2.3,0.4-3-2.1-3v-0.8h7.4v0.8c-2.5,0-3.1,0.6-4.1,3.5l-4.5,13.5h-0.5
		l-4-12.3l-4.1,12.3h-0.5l-4.4-13.5c-0.9-2.9-1.6-3.5-3.9-3.5v-0.8h8.8v0.8c-2.3,0-3,0.6-2.1,3l2.6,8l4-11.8H20L23.9,117.9z"/>
	<path fill="#00749A" d="M37.3,123.7c-4.3,0-7.9-3.2-7.9-7.1c0-3.9,3.6-7.1,7.9-7.1c4.3,0,7.9,3.2,7.9,7.1
		C45.2,120.5,41.6,123.7,37.3,123.7z M37.3,110.7c-3.6,0-4.9,3.3-4.9,5.8c0,2.6,1.3,5.8,4.9,5.8c3.7,0,4.9-3.2,4.9-5.8
		C42.2,114,41,110.7,37.3,110.7z"/>
	<path fill="#464342" d="M85.5,122.4v0.8h-9v-0.8c2.6,0,3.1-0.7,3.1-4.6v-6.3c0-3.9-0.5-4.6-3.1-4.6v-0.8h8.2c4.1,0,6.3,2.1,6.3,4.9
		c0,2.7-2.2,4.9-6.3,4.9h-2.2v1.9C82.4,121.7,82.9,122.4,85.5,122.4z M84.6,107.5h-2.2v6.9h2.2c2.2,0,3.2-1.5,3.2-3.4
		C87.9,109.1,86.8,107.5,84.6,107.5z"/>
	<path fill="#464342" d="M118,119.5l-0.2,0.7c-0.4,1.3-0.8,1.8-3.6,1.8h-0.6c-2.1,0-2.4-0.5-2.4-3.3v-1.8c3.1,0,3.3,0.3,3.3,2.3h0.7
		v-5.9h-0.7c0,2.1-0.2,2.3-3.3,2.3v-4.4h2.2c2.8,0,3.2,0.5,3.6,1.8l0.2,0.7h0.6l-0.3-3.7H106v0.7c2.2,0,2.6,0.5,2.6,3.3v5
		c0,2.6-0.3,3.2-2,3.3c-1.7-0.3-2.8-1.2-4.3-2.9l-1.8-2c2.4-0.4,3.7-2,3.7-3.7c0-2.2-1.9-3.8-5.3-3.8h-6.9v0.7
		c2.2,0,2.6,0.5,2.6,3.3v5c0,2.8-0.4,3.3-2.6,3.3v0.7h7.8v-0.7c-2.2,0-2.6-0.5-2.6-3.3v-1.4h0.7l4.4,5.5h16.2l0.2-3.7L118,119.5
		L118,119.5z M97.1,116.5v-5.2h1.6c1.8,0,2.6,1.2,2.6,2.6c0,1.4-0.8,2.6-2.6,2.6L97.1,116.5L97.1,116.5z"/>
	<path id="XMLID_8_" fill="#464342" d="M126,123.7c-1.6,0-3-0.8-3.5-1.3c-0.2,0.2-0.6,0.8-0.6,1.3h-0.7v-5.4h0.8
		c0.3,2.6,2.1,4.1,4.5,4.1c1.3,0,2.3-0.7,2.3-1.9c0-1-0.9-1.8-2.5-2.6l-2.2-1.1c-1.6-0.7-2.8-2.1-2.8-3.8c0-1.9,1.8-3.5,4.2-3.5
		c1.3,0,2.4,0.5,3.1,1c0.2-0.2,0.4-0.6,0.5-1.1h0.7v4.7h-0.8c-0.3-1.9-1.3-3.4-3.4-3.4c-1.1,0-2.1,0.6-2.1,1.6c0,1,0.8,1.6,2.7,2.4
		l2.2,1.1c1.9,0.9,2.6,2.4,2.6,3.6C130.9,121.9,128.7,123.7,126,123.7z"/>
	<path id="XMLID_7_" fill="#464342" d="M138.2,123.7c-1.6,0-3-0.8-3.5-1.3c-0.2,0.2-0.6,0.8-0.6,1.3h-0.7v-5.4h0.8
		c0.3,2.6,2.1,4.1,4.5,4.1c1.3,0,2.3-0.7,2.3-1.9c0-1-0.9-1.8-2.5-2.6l-2.2-1.1c-1.6-0.7-2.8-2.1-2.8-3.8c0-1.9,1.8-3.5,4.2-3.5
		c1.3,0,2.4,0.5,3.1,1c0.2-0.2,0.4-0.6,0.5-1.1h0.7v4.7H141c-0.3-1.9-1.3-3.4-3.4-3.4c-1.1,0-2.1,0.6-2.1,1.6c0,1,0.8,1.6,2.7,2.4
		l2.2,1.1c1.9,0.9,2.6,2.4,2.6,3.6C143,121.9,140.8,123.7,138.2,123.7z"/>
</g>
<g>
	<path id="XMLID_6_" fill="#464342" d="M36.2,46.5c0,15.2,8.8,28.3,21.6,34.5l-18.3-50C37.4,35.7,36.2,40.9,36.2,46.5z"/>
	<path id="XMLID_5_" fill="#464342" d="M100.4,44.6c0-4.7-1.7-8-3.2-10.6c-1.9-3.2-3.8-5.8-3.8-9c0-3.5,2.7-6.8,6.4-6.8
		c0.2,0,0.3,0,0.5,0C93.5,12,84.5,8.2,74.5,8.2c-13.4,0-25.1,6.9-32,17.3c0.9,0,1.7,0,2.5,0c4,0,10.2-0.5,10.2-0.5
		c2.1-0.1,2.3,2.9,0.2,3.2c0,0-2.1,0.2-4.4,0.4L65,70l8.4-25.1l-6-16.3c-2.1-0.1-4-0.4-4-0.4c-2.1-0.1-1.8-3.3,0.2-3.2
		c0,0,6.3,0.5,10.1,0.5c4,0,10.2-0.5,10.2-0.5c2.1-0.1,2.3,2.9,0.2,3.2c0,0-2.1,0.2-4.4,0.4l13.8,41.2l3.8-12.8
		C99.1,51.6,100.4,47.8,100.4,44.6z"/>
	<path id="XMLID_4_" fill="#464342" d="M75.2,49.8L63.7,83.2c3.4,1,7.1,1.6,10.8,1.6c4.5,0,8.7-0.8,12.7-2.2
		c-0.1-0.2-0.2-0.3-0.3-0.5L75.2,49.8z"/>
	<path id="XMLID_3_" fill="#464342" d="M108.1,28.1c0.2,1.2,0.3,2.5,0.3,3.9c0,3.9-0.7,8.3-2.9,13.7L93.7,79.6
		c11.4-6.6,19-19,19-33.1C112.8,39.8,111.1,33.6,108.1,28.1z"/>
	<path fill="#464342" d="M74.5,1.8c-24.6,0-44.6,20-44.6,44.6c0,24.6,20,44.6,44.6,44.6c24.6,0,44.6-20,44.6-44.6
		C119.1,21.9,99.1,1.8,74.5,1.8z M74.5,89.1C51,89.1,31.9,70,31.9,46.5C31.9,23,51,3.9,74.5,3.9c23.5,0,42.6,19.1,42.6,42.6
		C117.1,70,98,89.1,74.5,89.1z"/>
</g>
</svg>
