<?xml version="1.0" encoding="utf-8"?>
<!-- Generator: Adobe Illustrator 17.1.0, SVG Export Plug-In . SVG Version: 6.00 Build 0)  -->
<!DOCTYPE svg PUBLIC "-//W3C//DTD SVG 1.1//EN" "http://www.w3.org/Graphics/SVG/1.1/DTD/svg11.dtd">
<svg version="1.1" id="Layer_1" xmlns="http://www.w3.org/2000/svg" xmlns:xlink="http://www.w3.org/1999/xlink" x="0px" y="0px"
	 viewBox="0 0 1598 417" enable-background="new 0 0 1598 417" xml:space="preserve">
<line fill="none" stroke="#E7E7E7" stroke-width="1.24" stroke-miterlimit="10" x1="832.5" y1="192.9" x2="934.5" y2="192.9"/>
<line fill="none" stroke="#E7E7E7" stroke-width="1.24" stroke-miterlimit="10" x1="660.8" y1="192.9" x2="762.8" y2="192.9"/>
<line fill="none" stroke="#E7E7E7" stroke-width="1.24" stroke-miterlimit="10" x1="797.7" y1="227.9" x2="797.7" y2="416.3"/>
<line fill="none" stroke="#E7E7E7" stroke-width="1.24" stroke-miterlimit="10" x1="797.7" y1="-0.7" x2="797.7" y2="157.8"/>
<g>
	<line fill="none" stroke="#AEAEAE" stroke-width="1.24" stroke-miterlimit="10" x1="762.5" y1="192.9" x2="832.8" y2="192.9"/>
	<line fill="none" stroke="#AEAEAE" stroke-width="1.24" stroke-miterlimit="10" x1="797.7" y1="228.1" x2="797.7" y2="157.8"/>
</g>
<g>
	<line fill="none" stroke="#E7E7E7" stroke-width="1.24" stroke-miterlimit="10" x1="1496" y1="192.9" x2="1598" y2="192.9"/>
	<line fill="none" stroke="#E7E7E7" stroke-width="1.24" stroke-miterlimit="10" x1="1324.3" y1="192.9" x2="1426.3" y2="192.9"/>
	<line fill="none" stroke="#E7E7E7" stroke-width="1.24" stroke-miterlimit="10" x1="1461.2" y1="227.9" x2="1461.2" y2="416.3"/>
	<line fill="none" stroke="#E7E7E7" stroke-width="1.24" stroke-miterlimit="10" x1="1461.2" y1="-0.7" x2="1461.2" y2="157.8"/>
	<g>
		<line fill="none" stroke="#AEAEAE" stroke-width="1.24" stroke-miterlimit="10" x1="1426" y1="192.9" x2="1496.3" y2="192.9"/>
		<line fill="none" stroke="#AEAEAE" stroke-width="1.24" stroke-miterlimit="10" x1="1461.2" y1="228.1" x2="1461.2" y2="157.8"/>
	</g>
</g>
<g>
	<line fill="none" stroke="#E7E7E7" stroke-width="1.24" stroke-miterlimit="10" x1="171.7" y1="192.9" x2="273.7" y2="192.9"/>
	<line fill="none" stroke="#E7E7E7" stroke-width="1.24" stroke-miterlimit="10" x1="0" y1="192.9" x2="102" y2="192.9"/>
	<line fill="none" stroke="#E7E7E7" stroke-width="1.24" stroke-miterlimit="10" x1="136.9" y1="227.9" x2="136.9" y2="416.3"/>
	<line fill="none" stroke="#E7E7E7" stroke-width="1.24" stroke-miterlimit="10" x1="136.9" y1="-0.7" x2="136.9" y2="157.8"/>
	<g>
		<line fill="none" stroke="#AEAEAE" stroke-width="1.24" stroke-miterlimit="10" x1="101.7" y1="192.9" x2="172" y2="192.9"/>
		<line fill="none" stroke="#AEAEAE" stroke-width="1.24" stroke-miterlimit="10" x1="136.9" y1="228.1" x2="136.9" y2="157.8"/>
	</g>
</g>
</svg>
