<?xml version="1.0" encoding="utf-8"?>
<!-- Generator: Adobe Illustrator 17.1.0, SVG Export Plug-In . SVG Version: 6.00 Build 0)  -->
<!DOCTYPE svg PUBLIC "-//W3C//DTD SVG 1.1//EN" "http://www.w3.org/Graphics/SVG/1.1/DTD/svg11.dtd">
<svg version="1.1" id="Слой_1" xmlns="http://www.w3.org/2000/svg" xmlns:xlink="http://www.w3.org/1999/xlink" x="0px" y="0px"
	 viewBox="0 0 420.9 297.6" enable-background="new 0 0 420.9 297.6" xml:space="preserve">
<g>
	<path fill="#FFA500" d="M249.3,148.8c-7.4-4.1-13.2-7.4-18.2-10.7L203,124c-7.4-4.1-20.7-9.9-31.4-18.2c-8.3-5.8-24-18.2-29.8-45.5
		c0,0-24,52.1,29.8,86.8c6.6,4.1,12.4,7.4,17.4,9.9l31.4,15.7c7.4,4.1,19,9.9,28.9,16.5c8.3,5.8,24,18.2,29.8,45.5
		C279.1,236.5,303.1,184.4,249.3,148.8z"/>
	<path fill="#FFA500" d="M298.9,37.2L298.9,37.2H203l0,0l0,0l0,0l0,0c14.9,5,30.6,9.9,40.5,19c10.7,10.7,14.9,26.5,15.7,38.9l0,0
		c0,0.8,0.8,1.7,1.7,1.7s1.7-0.8,1.7-1.7c0,0,2.5-23.1,4.1-31.4c3.3-14.9,16.5-17.4,19.8-18.2c2.5-0.8,9.9-0.8,12.4-0.8
		c0.8,0,1.7,0,1.7,0c1.7,0,3.3-1.7,3.3-4.1C303.1,38.9,301.4,37.2,298.9,37.2z"/>
	<path fill="#FFA500" d="M122,260.4L122,260.4h95.9l0,0l0,0l0,0l0,0c-14.9-5-30.6-9.9-40.5-19c-10.7-10.7-14.9-26.5-15.7-38.9l0,0
		c0-0.8-0.8-1.7-1.7-1.7s-1.7,0.8-1.7,1.7c0,0-2.5,23.1-4.1,31.4c-3.3,14.9-16.5,17.4-19.8,18.2c-2.5,0.8-9.9,0.8-12.4,0.8
		c-0.8,0-1.7,0-1.7,0c-1.7,0-3.3,1.7-3.3,4.1C117.9,258.8,119.5,260.4,122,260.4z"/>
</g>
</svg>
